<svg width="78" height="78" viewBox="0 0 78 78" fill="none" xmlns="http://www.w3.org/2000/svg">
<g clip-path="url(#clip0_112_421)">
<path d="M0 25.998V45.4981H25.7075C24.9364 50.0368 22.5858 54.1569 19.0711 57.1305C15.5564 60.104 11.1038 61.7395 6.5 61.7481V68.2481C13.3933 68.2403 20.002 65.4985 24.8762 60.6243C29.7505 55.75 32.4923 49.1413 32.5 42.248V12.998H13C9.55219 12.998 6.24558 14.3677 3.80761 16.8057C1.36964 19.2436 0 22.5502 0 25.998H0Z" fill="#1A404C"/>
<path d="M58.5005 12.998C55.0527 12.998 51.7461 14.3677 49.3081 16.8057C46.8701 19.2436 45.5005 22.5502 45.5005 25.998V45.4981H71.208C70.4369 50.0368 68.0863 54.1569 64.5716 57.1305C61.0569 60.104 56.6043 61.7395 52.0005 61.7481V68.2481C58.8937 68.2403 65.5024 65.4985 70.3767 60.6243C75.251 55.75 77.9927 49.1413 78.0005 42.248V12.998H58.5005Z" fill="#1A404C"/>
</g>
<defs>
<clipPath id="clip0_112_421">
<rect width="78" height="78" fill="white"/>
</clipPath>
</defs>
</svg>
