<svg width="80" height="80" viewBox="0 0 80 80" fill="none" xmlns="http://www.w3.org/2000/svg">
<path d="M46.7775 18.3488L48.0415 19.8986C51.5321 24.1786 50.8922 30.4778 46.6123 33.9684L45.0624 35.2324L43.7984 33.6825C40.3078 29.4026 40.9477 23.1034 45.2276 19.6128L46.7775 18.3488Z" stroke="black" stroke-width="2" stroke-linejoin="round"/>
<path d="M45.6946 36.0073L46.9586 37.5572C50.4492 41.8371 56.7485 42.477 61.0284 38.9864L62.5783 37.7223L61.3142 36.1725C57.8236 31.8925 51.5244 31.2527 47.2445 34.7433L45.6946 36.0073Z" stroke="black" stroke-width="2" stroke-linejoin="round"/>
<path d="M35.7954 27.3054L37.0595 28.8553C40.5501 33.1352 39.9102 39.4345 35.6303 42.925L34.0804 44.1891L32.8163 42.6392C29.3257 38.3593 29.9656 32.0601 34.2455 28.5695L35.7954 27.3054Z" stroke="black" stroke-width="2" stroke-linejoin="round"/>
<path d="M34.7124 44.9641L35.9765 46.514C39.467 50.7939 45.7663 51.4338 50.0462 47.9432L51.5961 46.6791L50.332 45.1292C46.8414 40.8493 40.5422 40.2095 36.2623 43.7001L34.7124 44.9641Z" stroke="black" stroke-width="2" stroke-linejoin="round"/>
<path d="M24.9462 36.1538L26.2102 37.7037C29.7008 41.9836 29.0609 48.2828 24.781 51.7734L23.2311 53.0375L21.9671 51.4876C18.4765 47.2077 19.1164 40.9085 23.3963 37.4179L24.9462 36.1538Z" stroke="black" stroke-width="2" stroke-linejoin="round"/>
<path d="M23.8633 53.8125L25.1273 55.3624C28.6179 59.6423 34.9172 60.2822 39.1971 56.7916L40.747 55.5275L39.4829 53.9776C35.9923 49.6977 29.6931 49.0579 25.4132 52.5484L23.8633 53.8125Z" stroke="black" stroke-width="2" stroke-linejoin="round"/>
<path d="M55.3686 30.034C60.8632 30.5921 65.7698 26.5903 66.328 21.0957L66.5301 19.106L64.5403 18.9039C59.0458 18.3457 54.1391 22.3475 53.5809 27.8421L53.3788 29.8319L55.3686 30.034Z" stroke="black" stroke-width="2" stroke-linejoin="round"/>
<path d="M21.1821 53.4183L22.4462 54.9682L13.9218 61.9205C13.4938 62.2696 12.8639 62.2056 12.5148 61.7776C12.1657 61.3496 12.2297 60.7197 12.6577 60.3706L21.1821 53.4183Z" fill="black"/>
</svg>
