<svg width="32" height="32" viewBox="0 0 32 32" fill="none" xmlns="http://www.w3.org/2000/svg">
<g clip-path="url(#clip0_45_3823)">
<path d="M32 16.0938C32 7.25719 24.8366 0.09375 16 0.09375C7.16344 0.09375 0 7.25719 0 16.0938C0 24.0797 5.85094 30.6991 13.5 31.8994V20.7188H9.4375V16.0938H13.5V12.5688C13.5 8.55875 15.8888 6.34375 19.5434 6.34375C21.2941 6.34375 23.125 6.65625 23.125 6.65625V10.5938H21.1075C19.12 10.5938 18.5 11.8272 18.5 13.0925V16.0938H22.9375L22.2281 20.7188H18.5V31.8994C26.1491 30.6991 32 24.08 32 16.0938Z" fill="#1A404C"/>
</g>
<defs>
<clipPath id="clip0_45_3823">
<rect width="32" height="32" fill="white"/>
</clipPath>
</defs>
</svg>
