<svg width="32" height="32" viewBox="0 0 32 32" fill="none" xmlns="http://www.w3.org/2000/svg">
<path d="M31.3336 8.23989C30.9648 6.86221 29.8821 5.77957 28.5044 5.41078C26.0072 4.7417 16 4.7417 16 4.7417C16 4.7417 5.99276 4.7417 3.49819 5.41078C2.12051 5.77957 1.03787 6.86221 0.669081 8.23989C0 10.7345 0 15.9422 0 15.9422C0 15.9422 0 21.15 0.669081 23.6446C1.03787 25.0222 2.12051 26.1049 3.49819 26.4737C5.99276 27.1428 16 27.1428 16 27.1428C16 27.1428 26.0072 27.1428 28.5018 26.4737C29.8795 26.1049 30.9621 25.0222 31.3309 23.6446C32 21.15 32 15.9422 32 15.9422C32 15.9422 32 10.7345 31.3309 8.23989H31.3336ZM12.7995 20.7417V11.1428L21.1129 15.9422L12.7995 20.7417Z" fill="#1A404C"/>
</svg>
