<svg width="151" height="27" viewBox="0 0 151 27" fill="none" xmlns="http://www.w3.org/2000/svg">
<path d="M0.792 21V5.824H6.392L11.684 15.736H9.472L15.268 5.824H20.28L20.308 21H15.52V11.088L16.332 11.648L11.628 19.656H9.36L4.656 11.256L5.58 11.004V21H0.792ZM32.8855 21V18.172L32.5215 17.472V12.264C32.5215 11.424 32.2601 10.78 31.7375 10.332C31.2335 9.86533 30.4215 9.632 29.3015 9.632C28.5735 9.632 27.8361 9.75333 27.0895 9.996C26.3428 10.22 25.7081 10.5373 25.1855 10.948L23.3935 7.336C24.2521 6.776 25.2788 6.34667 26.4735 6.048C27.6868 5.73067 28.8908 5.572 30.0855 5.572C32.5495 5.572 34.4535 6.14133 35.7975 7.28C37.1601 8.4 37.8415 10.164 37.8415 12.572V21H32.8855ZM28.4055 21.252C27.1921 21.252 26.1655 21.0467 25.3255 20.636C24.4855 20.2253 23.8415 19.6653 23.3935 18.956C22.9641 18.2467 22.7495 17.4533 22.7495 16.576C22.7495 15.6427 22.9828 14.84 23.4495 14.168C23.9348 13.4773 24.6721 12.9547 25.6615 12.6C26.6508 12.2267 27.9295 12.04 29.4975 12.04H33.0815V14.812H30.2255C29.3668 14.812 28.7601 14.952 28.4055 15.232C28.0695 15.512 27.9015 15.8853 27.9015 16.352C27.9015 16.8187 28.0788 17.192 28.4335 17.472C28.7881 17.752 29.2735 17.892 29.8895 17.892C30.4681 17.892 30.9908 17.752 31.4575 17.472C31.9428 17.1733 32.2975 16.7253 32.5215 16.128L33.2495 18.088C32.9695 19.1333 32.4188 19.9267 31.5975 20.468C30.7948 20.9907 29.7308 21.252 28.4055 21.252ZM51.934 21.392C51.878 21.392 51.7473 21.392 51.542 21.392C51.3367 21.392 51.1407 21.392 50.954 21.392C50.7673 21.392 50.646 21.392 50.59 21.392C47.174 21.336 44.542 20.636 42.694 19.292C40.8647 17.9293 39.95 15.9507 39.95 13.356C39.95 10.7987 40.8647 8.86667 42.694 7.56C44.5233 6.23467 47.1833 5.55333 50.674 5.516C50.7113 5.516 50.8233 5.516 51.01 5.516C51.2153 5.516 51.4113 5.516 51.598 5.516C51.7847 5.516 51.8967 5.516 51.934 5.516C55.4807 5.516 58.2153 6.17867 60.138 7.504C62.0607 8.81067 63.022 10.7613 63.022 13.356C63.022 15.988 62.0607 17.9853 60.138 19.348C58.2153 20.7107 55.4807 21.392 51.934 21.392ZM51.71 17.528C53.2407 17.528 54.454 17.388 55.35 17.108C56.2647 16.8093 56.9273 16.352 57.338 15.736C57.7673 15.12 57.982 14.3267 57.982 13.356C57.982 12.404 57.7767 11.6387 57.366 11.06C56.9553 10.4813 56.2927 10.0613 55.378 9.8C54.4633 9.52 53.2407 9.38 51.71 9.38C51.6727 9.38 51.5513 9.38 51.346 9.38C51.1407 9.38 51.0007 9.38 50.926 9.38C49.4887 9.38 48.3313 9.52933 47.454 9.828C46.5953 10.108 45.97 10.5373 45.578 11.116C45.2047 11.6947 45.018 12.4413 45.018 13.356C45.018 14.308 45.2047 15.092 45.578 15.708C45.97 16.3053 46.5953 16.7533 47.454 17.052C48.3313 17.3507 49.4887 17.5093 50.926 17.528C50.982 17.528 51.1127 17.528 51.318 17.528C51.5233 17.528 51.654 17.528 51.71 17.528ZM49.134 26.432V0.223999H53.838V26.432H49.134ZM76.4067 21.392C76.3507 21.392 76.22 21.392 76.0147 21.392C75.8093 21.392 75.6133 21.392 75.4267 21.392C75.24 21.392 75.1187 21.392 75.0627 21.392C71.6467 21.336 69.0147 20.636 67.1667 19.292C65.3373 17.9293 64.4227 15.9507 64.4227 13.356C64.4227 10.7987 65.3373 8.86667 67.1667 7.56C68.996 6.23467 71.656 5.55333 75.1467 5.516C75.184 5.516 75.296 5.516 75.4827 5.516C75.688 5.516 75.884 5.516 76.0707 5.516C76.2573 5.516 76.3693 5.516 76.4067 5.516C79.9533 5.516 82.688 6.17867 84.6107 7.504C86.5333 8.81067 87.4947 10.7613 87.4947 13.356C87.4947 15.988 86.5333 17.9853 84.6107 19.348C82.688 20.7107 79.9533 21.392 76.4067 21.392ZM76.1827 17.528C77.7133 17.528 78.9267 17.388 79.8227 17.108C80.7373 16.8093 81.4 16.352 81.8107 15.736C82.24 15.12 82.4547 14.3267 82.4547 13.356C82.4547 12.404 82.2493 11.6387 81.8387 11.06C81.428 10.4813 80.7653 10.0613 79.8507 9.8C78.936 9.52 77.7133 9.38 76.1827 9.38C76.1453 9.38 76.024 9.38 75.8187 9.38C75.6133 9.38 75.4733 9.38 75.3987 9.38C73.9613 9.38 72.804 9.52933 71.9267 9.828C71.068 10.108 70.4427 10.5373 70.0507 11.116C69.6773 11.6947 69.4907 12.4413 69.4907 13.356C69.4907 14.308 69.6773 15.092 70.0507 15.708C70.4427 16.3053 71.068 16.7533 71.9267 17.052C72.804 17.3507 73.9613 17.5093 75.3987 17.528C75.4547 17.528 75.5853 17.528 75.7907 17.528C75.996 17.528 76.1267 17.528 76.1827 17.528ZM73.6067 26.432V0.223999H78.3107V26.432H73.6067ZM114.46 21V5.824H119.752V13.776L126.108 5.824H131.008V21H125.688V13.02L119.388 21H114.46ZM134.585 21V5.824H139.877V11.452H145.337V5.824H150.657V21H145.337V15.68H139.877V21H134.585Z" fill="black"/>
<path d="M100.879 21.392C100.823 21.392 100.693 21.392 100.487 21.392C100.282 21.392 100.086 21.392 99.8993 21.392C99.7126 21.392 99.5913 21.392 99.5353 21.392C96.1193 21.336 93.4873 20.636 91.6393 19.292C89.81 17.9293 88.8953 15.9507 88.8953 13.356C88.8953 10.7987 89.81 8.86667 91.6393 7.56C93.4686 6.23467 96.1286 5.55333 99.6193 5.516C99.6566 5.516 99.7686 5.516 99.9553 5.516C100.161 5.516 100.357 5.516 100.543 5.516C100.73 5.516 100.842 5.516 100.879 5.516C104.426 5.516 107.161 6.17867 109.083 7.504C111.006 8.81067 111.967 10.7613 111.967 13.356C111.967 15.988 111.006 17.9853 109.083 19.348C107.161 20.7107 104.426 21.392 100.879 21.392ZM100.655 17.528C102.186 17.528 103.399 17.388 104.295 17.108C105.21 16.8093 105.873 16.352 106.283 15.736C106.713 15.12 106.927 14.3267 106.927 13.356C106.927 12.404 106.722 11.6387 106.311 11.06C105.901 10.4813 105.238 10.0613 104.323 9.8C103.409 9.52 102.186 9.38 100.655 9.38C100.618 9.38 100.497 9.38 100.291 9.38C100.086 9.38 99.946 9.38 99.8713 9.38C98.434 9.38 97.2766 9.52933 96.3993 9.828C95.5406 10.108 94.9153 10.5373 94.5233 11.116C94.15 11.6947 93.9633 12.4413 93.9633 13.356C93.9633 14.308 94.15 15.092 94.5233 15.708C94.9153 16.3053 95.5406 16.7533 96.3993 17.052C97.2766 17.3507 98.434 17.5093 99.8713 17.528C99.9273 17.528 100.058 17.528 100.263 17.528C100.469 17.528 100.599 17.528 100.655 17.528ZM98.0793 26.432V0.223999H102.783V26.432H98.0793Z" fill="#FFD101"/>
</svg>
